<svg width="129" height="166" viewBox="0 0 129 166" fill="none" xmlns="http://www.w3.org/2000/svg">
<path d="M120.5 83C120.5 122.608 95.3218 154.5 64.5 154.5C33.6782 154.5 8.5 122.608 8.5 83C8.5 43.3919 33.6782 11.5 64.5 11.5C95.3218 11.5 120.5 43.3919 120.5 83Z" fill="url(#paint0_linear_340_14)" stroke="#DB9E7E"/>
<path d="M126.5 83C126.5 128.082 98.1916 163.5 64.5 163.5C30.8084 163.5 2.5 128.082 2.5 83C2.5 37.9178 30.8084 2.5 64.5 2.5C98.1916 2.5 126.5 37.9178 126.5 83Z" stroke="black" stroke-width="5"/>
<path d="M126.5 83C126.5 128.082 98.1916 163.5 64.5 163.5C30.8084 163.5 2.5 128.082 2.5 83C2.5 37.9178 30.8084 2.5 64.5 2.5C98.1916 2.5 126.5 37.9178 126.5 83Z" stroke="url(#paint1_linear_340_14)" stroke-width="5"/>
<defs>
<linearGradient id="paint0_linear_340_14" x1="8" y1="11" x2="121" y2="155" gradientUnits="userSpaceOnUse">
<stop offset="0.162871" stop-color="#E58DC3"/>
<stop offset="0.319982" stop-color="#EFC093"/>
<stop offset="0.476168" stop-color="#AEEB89"/>
<stop offset="0.646172" stop-color="#F2CF82"/>
<stop offset="0.821072" stop-color="#ED9D68"/>
</linearGradient>
<linearGradient id="paint1_linear_340_14" x1="0" y1="0" x2="130.56" y2="164.764" gradientUnits="userSpaceOnUse">
<stop offset="0.162871" stop-color="#E58DC3"/>
<stop offset="0.319982" stop-color="#EFC093"/>
<stop offset="0.476168" stop-color="#AEEB89"/>
<stop offset="0.646172" stop-color="#F2CF82"/>
<stop offset="0.821072" stop-color="#ED9D68"/>
</linearGradient>
</defs>
</svg>
