<svg width="682" height="521" viewBox="0 0 682 521" fill="none" xmlns="http://www.w3.org/2000/svg">
<path d="M155.593 237.8V470.903C201.606 452.49 298.504 448.808 317.992 492.998" stroke="#494EB0" stroke-width="55" stroke-linecap="round"/>
<path d="M503.591 237.8V469.798C448.237 450.465 341.436 446.598 317.992 492.998" stroke="#494EB0" stroke-width="55" stroke-linecap="round"/>
<path d="M317.624 307.234L29.9094 180.639C29.141 180.301 29.106 179.224 29.8508 178.837L317.569 29.2231C317.84 29.0822 318.161 29.0729 318.44 29.1978L486.197 104.4L652.189 178.81C653.002 179.174 652.968 180.341 652.134 180.657L318.381 307.253C318.136 307.346 317.864 307.339 317.624 307.234Z" stroke="#494EB0" stroke-width="57" stroke-linecap="round"/>
<path d="M329.609 168.198H618.608C619.16 168.198 619.608 168.646 619.608 169.198V307.398" stroke="#494EB0" stroke-width="31" stroke-linecap="round"/>
<circle cx="619.601" cy="353.799" r="35.8997" stroke="#494EB0" stroke-width="21"/>
</svg>
